#!OML:ASF H:\ColoradoDance\Project 1\Capture day 1\Session 8\male.ASF
:FULLY-SPECIFIED
:DEGREES
137
upperback -3.710760 0.197701 0.247555
rfoot 20.634001 -3.866950
lradius 30.808901
lthumb 7.619210 52.055500
rradius 28.891600
lwrist -11.462400
rhand -45.426701 -7.783750
rhumerus -55.546600 -12.201400 -70.335403
lowerneck -5.014650 4.499550 6.805730
lhand -18.674601 22.212700
ltibia 24.610901
head 3.545720 2.886090 -2.973710
rwrist 12.113900
lfingers 7.125020
rtoes 17.996700
lowerback 1.090400 0.182660 -0.073364
rfingers 7.125020
lclavicle -0.000000 -0.000000
upperneck 6.688480 5.925440 -6.082210
rfemur -3.232650 -0.390808 15.454100
thorax -4.434260 0.082959 0.288403
rclavicle -0.000000 -0.000000
rtibia 52.100601
lfoot -4.236420 5.352000
lhumerus -44.772400 7.614900 72.692200
rthumb -18.194201 -396.953003
root -2.650760 19.819500 -23.236000 1622.760010 -72.064796 -537.190979
ltoes 2.832550
lfemur -22.896000 0.788311 -19.658501
138
upperback -2.694170 -0.998294 0.518749
rfoot -8.673270 -17.535500
lradius 43.241001
lthumb 7.577880 57.613800
rradius 34.905998
lwrist -6.373060
rhand -18.930099 10.678100
rhumerus -53.394600 -10.014500 -74.512199
lowerneck -4.314400 4.670510 7.451790
lhand -18.717400 27.769600
ltibia 29.408800
head 3.465220 3.010530 -3.150660
rwrist 6.155000
lfingers 7.125020
rtoes -8.957510
lowerback 2.124970 -0.716542 -0.914724
rfingers 7.125020
lclavicle 0.000000 -0.000000
upperneck 7.710290 6.274080 -7.328380
rfemur -23.485701 -3.293010 16.388500
thorax -3.939570 -0.471597 1.102490
rclavicle 0.000000 -0.000000
rtibia 59.533001
lfoot -14.756400 9.747500
lhumerus -34.757099 -1.054080 74.468803
rthumb 7.372590 -379.173004
root -5.221270 19.685699 -23.377899 1622.930054 -72.645798 -539.791016
ltoes 2.396950
lfemur -13.941700 -4.381710 -22.890100
139
upperback -2.764800 -1.444320 0.208408
rfoot -16.670500 -21.284100
lradius 50.293201
lthumb 3.432900 56.869400
rradius 27.965099
lwrist -2.965990
rhand -35.839100 3.473820
rhumerus -57.450699 -11.658600 -68.832497
lowerneck -4.884880 3.065780 5.783910
lhand -23.010599 26.917299
ltibia 25.083500
head 3.835890 1.952180 -2.616320
rwrist 10.089600
lfingers 7.125020
rtoes -21.701300
lowerback 1.626680 -1.022850 -1.740860
rfingers 7.125020
lclavicle -0.000000 -0.000000
upperneck 8.178870 4.050280 -5.282390
rfemur -36.518101 3.943610 13.521500
thorax -3.708250 -0.677193 1.259550
rclavicle -0.000000 -0.000000
rtibia 34.924500
lfoot -19.563101 6.023790
lhumerus -32.884998 -2.496280 75.855904
rthumb -8.954590 -386.316010
root -7.498480 19.547600 -23.858000 1627.770020 -79.245598 -544.322021
ltoes 1.768980
lfemur -4.498700 -5.516050 -24.567499
140
upperback -2.795730 -1.676890 -0.492181
rfoot -37.258801 -32.126598
lradius 45.253700
lthumb 6.732540 56.305698
rradius 25.039400
lwrist -5.344880
rhand -37.002300 -4.863090
rhumerus -60.741299 -14.396700 -65.479897
lowerneck -5.482430 0.133999 3.306130
lhand -19.593201 26.432699
ltibia 16.911699
head 3.761880 0.013257 -1.333100
rwrist 11.897800
lfingers 7.125020
rtoes -9.198240
lowerback 0.806576 -1.158240 -3.343750
rfingers 7.125020
lclavicle -0.000000 -0.000000
upperneck 8.533500 0.042267 -2.252950
rfemur -38.936798 9.255040 7.554710
thorax -3.248820 -0.768734 1.426210
rclavicle -0.000000 -0.000000
rtibia 29.421900
lfoot -19.164700 0.446531
lhumerus -37.727299 -4.187020 82.044502
rthumb -10.076900 -394.601990
root -9.962630 19.337200 -24.660299 1685.459961 -86.996002 -601.520996
ltoes -3.854110
lfemur 6.995590 -8.999510 -24.364100
141
upperback -3.917520 -1.828400 0.884156
rfoot -9.682670 -27.344700
lradius 32.590500
lthumb 9.260010 53.688999
rradius 27.666901
lwrist -9.723680
rhand -37.619400 -9.175850
rhumerus -58.059299 -15.884600 -63.952202
lowerneck -4.550200 -2.730910 -0.250708
lhand -16.974400 23.912300
ltibia 25.384199
head 3.068690 -1.842180 -0.314630
rwrist 12.094600
lfingers 7.125020
rtoes 7.559740
lowerback 0.093311 -1.358180 0.492194
rfingers 7.125020
lclavicle -0.000000 0.000000
upperneck 7.141540 -3.622230 -0.652204
rfemur -31.815599 1.049810 17.468901
thorax -4.069300 -0.934909 0.703157
rclavicle -0.000000 0.000000
rtibia 31.292999
lfoot -0.633472 -8.839520
lhumerus -41.315300 -2.087310 84.641403
rthumb -10.672200 -398.885010
root -13.068000 19.634001 -25.858999 1799.099976 -86.443001 -714.184021
ltoes -16.139999
lfemur 8.233980 -6.659980 -15.276500
142
upperback -3.424170 -3.265150 1.789820
rfoot -7.753930 -11.611600
lradius 28.105301
lthumb 12.368600 51.626801
rradius 47.321499
lwrist -12.125800
rhand -33.642200 5.908610
rhumerus -48.178398 -7.352780 -72.009003
lowerneck -4.074700 -8.030640 -3.742420
lhand -13.751600 22.012699
ltibia 48.914700
head 3.215110 -5.353350 0.755466
rwrist 3.821560
lfingers 7.125020
rtoes 4.797120
lowerback 0.198242 -2.453550 0.957872
rfingers 7.125020
lclavicle -0.000000 0.000000
upperneck 6.775240 -10.680200 1.767050
rfemur -24.429199 5.438190 21.834700
thorax -3.580600 -1.654610 1.414710
rclavicle -0.000000 0.000000
rtibia 28.938601
lfoot 28.593500 -2.357980
lhumerus -44.322701 3.532040 81.672600
rthumb -6.834170 -383.960999
root -15.511800 20.069000 -26.730200 1807.770020 -103.477997 -721.901978
ltoes 10.139500
lfemur -4.672110 -1.529920 -13.689100
143
upperback -3.365580 -3.032060 0.809104
rfoot -7.708050 -0.974548
lradius 27.490601
lthumb 24.812201 12.866300
rradius 45.459301
lwrist -11.806300
rhand -30.437201 -0.191339
rhumerus -38.296200 -3.732550 -77.913300
lowerneck -5.358430 -7.175750 -1.952790
lhand -0.812217 -15.544000
ltibia 49.157501
head 3.412830 -4.821060 -0.864815
rwrist 5.828400
lfingers 7.125020
rtoes 2.373630
lowerback 0.089566 -2.231860 -0.206612
rfingers 7.125020
lclavicle -0.000000 0.000000
upperneck 7.734750 -9.354650 -2.355980
rfemur -22.923201 11.219200 19.631001
thorax -3.453770 -1.523480 1.041720
rclavicle -0.000000 0.000000
rtibia 28.613001
lfoot 29.336901 1.019880
lhumerus -49.718498 8.855250 72.349899
rthumb -3.739680 -390.138000
root -17.254101 20.355200 -26.860500 1811.459961 -136.457993 -724.531006
ltoes 14.552900
lfemur -9.433310 0.526997 -14.538400
144
upperback -3.496480 -0.182420 -1.234210
rfoot -10.230700 -16.966900
lradius 28.049000
lthumb 7.264030 58.060299
rradius 23.331400
lwrist -9.161770
rhand -33.578602 -3.310760
rhumerus -33.640999 -15.336900 -76.227600
lowerneck -6.021500 -4.036370 -1.162420
lhand -19.042601 28.205000
ltibia 44.202499
head 2.973830 -2.684210 -0.364332
rwrist 11.313500
lfingers 7.125020
rtoes 3.075370
lowerback 0.054325 -0.001905 -1.346870
rfingers 7.125020
lclavicle 0.000000 -0.000000
upperneck 6.011770 -5.253650 -1.030100
rfemur -25.091900 7.694470 21.708300
thorax -3.625570 -0.119526 -0.506308
rclavicle 0.000000 -0.000000
rtibia 29.428600
lfoot 18.742201 2.172560
lhumerus -50.448002 11.755800 63.145500
rthumb -6.772830 -393.182007
root -18.558599 20.298401 -26.413000 1812.439941 -161.007996 -725.177979
ltoes 17.383801
lfemur -5.790770 -2.129670 -14.224500
